<?xml version="1.0" standalone="no"?>
<!DOCTYPE svg PUBLIC "-//W3C//DTD SVG 20010904//EN"
 "http://www.w3.org/TR/2001/REC-SVG-20010904/DTD/svg10.dtd">
<svg version="1.0" xmlns="http://www.w3.org/2000/svg"
 width="262.000000pt" height="114.000000pt" viewBox="0 0 262.000000 114.000000"
 preserveAspectRatio="xMidYMid meet">

<g transform="translate(0.000000,114.000000) scale(0.100000,-0.100000)"
fill="#ffffff" stroke="none">
<path d="M370 1119 c-138 -24 -264 -119 -328 -247 -33 -68 -37 -84 -40 -172
-4 -81 -1 -109 18 -164 88 -266 410 -386 648 -243 69 41 156 132 149 155 -3 9
-14 40 -24 68 l-19 52 -28 -54 c-35 -66 -91 -118 -165 -153 -47 -22 -69 -26
-141 -25 -104 1 -157 22 -231 91 -75 70 -102 129 -107 233 -5 116 20 183 97
261 105 104 254 132 385 71 131 -61 191 -155 207 -322 5 -55 18 -123 29 -151
73 -185 258 -302 450 -286 122 10 241 71 310 159 l39 48 -18 43 c-10 23 -22
51 -25 62 -7 17 -11 14 -31 -25 -32 -63 -96 -124 -163 -157 -49 -24 -69 -28
-142 -28 -71 0 -94 4 -141 26 -132 62 -195 161 -209 329 -15 164 -81 282 -204
362 -94 61 -209 85 -316 67z"/>
<path d="M1160 1119 c-30 -5 -84 -23 -119 -40 -74 -37 -186 -141 -178 -167 3
-10 14 -41 25 -70 l19 -54 22 46 c31 64 95 124 169 159 52 24 76 29 135 29
104 0 177 -30 248 -101 67 -67 95 -133 105 -248 4 -43 14 -103 24 -134 78
-257 387 -383 632 -258 54 28 143 112 175 167 104 177 76 400 -66 543 -181
180 -471 176 -644 -10 l-55 -60 26 -65 26 -65 17 40 c29 63 115 142 184 168
72 27 179 30 244 7 195 -71 284 -293 192 -480 -101 -206 -367 -258 -535 -105
-76 69 -106 135 -117 252 -10 96 -38 191 -72 242 -104 155 -280 233 -457 204z"/>
<path d="M384 839 c-18 -5 -48 -27 -67 -48 -76 -84 -53 -212 47 -260 88 -43
192 -13 234 69 73 144 -54 285 -214 239z m128 -84 c33 -33 42 -77 24 -120 -17
-41 -42 -55 -94 -55 -82 0 -122 103 -66 169 35 41 98 44 136 6z"/>
<path d="M1978 800 c-55 -127 -118 -279 -118 -284 0 -3 15 -6 34 -6 30 0 36 4
50 40 l16 40 69 0 69 0 16 -40 c14 -36 19 -40 51 -40 19 0 35 3 35 8 0 4 -31
79 -68 166 l-68 159 -33 1 c-31 1 -36 -3 -53 -44z m71 -87 c8 -21 16 -44 18
-50 4 -9 -7 -13 -36 -13 -23 0 -41 3 -41 7 0 13 35 93 40 93 4 0 12 -17 19
-37z"/>
<path d="M1090 678 l0 -163 99 5 c107 5 132 16 175 74 29 39 29 133 0 172 -43
59 -68 69 -175 72 l-99 4 0 -164z m191 73 c23 -24 29 -38 29 -74 0 -61 -40
-97 -106 -97 l-44 0 0 100 0 100 46 0 c37 0 51 -5 75 -29z"/>
<path d="M340 90 c0 -5 6 -10 14 -10 10 0 16 -14 19 -42 l4 -43 1 43 c1 30 6
42 17 42 8 0 15 5 15 10 0 6 -16 10 -35 10 -19 0 -35 -4 -35 -10z"/>
<path d="M441 48 c1 -29 4 -43 6 -30 5 27 11 28 40 0 23 -21 34 -13 11 10 -8
8 -8 15 2 27 17 20 -3 45 -36 45 -22 0 -24 -4 -23 -52z m47 20 c-7 -19 -38
-22 -38 -4 0 10 9 16 21 16 12 0 19 -5 17 -12z"/>
<path d="M530 55 c0 -25 5 -45 10 -45 6 0 10 20 10 45 0 25 -4 45 -10 45 -5 0
-10 -20 -10 -45z"/>
<path d="M581 48 c1 -29 4 -43 6 -30 3 15 11 22 28 22 27 0 40 26 24 46 -6 8
-22 14 -35 14 -22 0 -24 -4 -23 -52z m49 17 c0 -8 -9 -15 -20 -15 -11 0 -20 7
-20 15 0 8 9 15 20 15 11 0 20 -7 20 -15z"/>
<path d="M672 53 c-2 -50 -1 -53 22 -53 14 0 28 4 31 10 3 6 -5 10 -19 10 -22
0 -25 5 -29 43 -3 40 -4 40 -5 -10z"/>
<path d="M752 53 c3 -42 6 -48 27 -51 13 -2 28 1 34 7 8 8 3 11 -16 11 -33 0
-37 27 -4 33 l22 4 -22 2 c-31 2 -29 21 2 21 14 0 25 5 25 10 0 6 -16 10 -36
10 l-35 0 3 -47z"/>
<path d="M932 53 c3 -44 5 -48 31 -51 15 -2 27 1 27 7 0 6 -9 11 -20 11 -16 0
-20 7 -20 34 0 19 -5 38 -11 41 -7 5 -9 -9 -7 -42z"/>
<path d="M1027 82 c-24 -26 -21 -49 7 -67 45 -30 91 16 61 61 -19 29 -46 31
-68 6z m58 -32 c0 -18 -6 -26 -23 -28 -24 -4 -38 18 -28 44 3 9 15 14 28 12
17 -2 23 -10 23 -28z"/>
<path d="M1142 88 c-20 -20 -15 -66 9 -78 26 -14 69 11 69 40 0 39 -51 65 -78
38z m53 -38 c0 -18 -6 -26 -23 -28 -13 -2 -25 3 -28 12 -10 26 4 48 28 44 17
-2 23 -10 23 -28z"/>
<path d="M1240 55 c0 -25 5 -45 10 -45 6 0 10 6 10 14 0 8 10 16 22 18 26 3
37 36 16 49 -7 5 -23 9 -35 9 -21 0 -23 -5 -23 -45z m53 10 c1 -5 -6 -11 -15
-13 -11 -2 -18 3 -18 13 0 17 30 18 33 0z"/>
<path d="M1422 53 c3 -42 6 -48 27 -51 13 -2 28 1 34 7 8 8 3 11 -16 11 -24 0
-27 4 -27 34 0 19 -5 38 -11 41 -7 5 -9 -9 -7 -42z"/>
<path d="M1510 50 c0 -49 1 -50 30 -50 17 0 30 5 30 10 0 6 -12 10 -26 10 -32
0 -27 22 7 31 24 7 24 7 -3 8 -35 1 -37 21 -3 21 14 0 25 5 25 10 0 6 -13 10
-30 10 -29 0 -30 -1 -30 -50z"/>
<path d="M1610 53 c-11 -25 -18 -48 -15 -51 2 -3 7 3 11 12 8 21 43 21 60 -2
21 -27 17 3 -6 48 -11 22 -22 40 -25 40 -2 0 -13 -21 -25 -47z m40 -4 c0 -5
-7 -9 -15 -9 -9 0 -12 6 -9 15 6 15 24 11 24 -6z"/>
<path d="M1700 55 c0 -25 5 -45 10 -45 6 0 10 7 10 15 0 21 10 19 37 -7 23
-21 34 -13 11 10 -8 8 -8 15 2 27 18 21 -4 45 -41 45 -28 0 -29 -2 -29 -45z
m58 13 c-7 -19 -38 -22 -38 -4 0 10 9 16 21 16 12 0 19 -5 17 -12z"/>
<path d="M1802 50 c1 -35 3 -43 5 -22 5 38 15 41 37 7 24 -37 36 -30 36 21 0
27 -4 43 -10 39 -5 -3 -10 -17 -10 -31 0 -24 0 -24 -30 8 l-29 33 1 -55z"/>
<path d="M1913 50 c0 -30 2 -43 4 -28 2 16 2 40 0 55 -2 16 -4 3 -4 -27z"/>
<path d="M1952 50 c1 -35 3 -43 5 -22 5 38 15 41 37 7 24 -37 36 -31 36 20 0
25 -4 45 -10 45 -5 0 -10 -14 -10 -30 l0 -30 -30 32 -29 33 1 -55z"/>
<path d="M2066 84 c-23 -23 -20 -51 8 -69 29 -19 66 -6 62 22 -3 19 -36 32
-36 14 0 -6 5 -11 10 -11 6 0 10 -5 10 -11 0 -6 -10 -9 -22 -7 -17 2 -24 11
-26 31 -3 24 0 27 28 27 18 0 29 4 25 10 -9 15 -42 12 -59 -6z"/>
</g>
</svg>
